<svg width="973" height="196" viewBox="0 0 973 196" fill="none" xmlns="http://www.w3.org/2000/svg">
<g clip-path="url(#clip0_455001_1354)">
<path d="M0 61.24H30C67.23 61.24 96.51 87.09 96.51 127.24C96.51 167.54 67.23 193.24 30 193.24H0V61.24ZM30 186.31C64.16 186.31 89.1 162.45 89.1 127.21C89.1 92.15 64.16 68.11 30 68.11H7.23V186.31H30Z" fill="white"/>
<path d="M124.89 61.24H132.12V193.17H124.89V61.24Z" fill="white"/>
<path d="M160.31 127.57C160.31 87.0899 190.85 59.4399 227.54 59.4399C246.7 59.4399 264.95 66.8499 276.7 79.1399L271.64 84.9199C261.34 73.5299 245.25 66.4799 227.54 66.4799C193.92 66.4799 167.72 92.1499 167.72 127.57C167.72 162.27 193.38 187.93 227 187.93C257.36 187.93 280.85 166.93 282.48 130.28H223.74V123.41H289.74V126.49C289.71 170.4 261.52 195 227 195C190.31 195 160.31 167.33 160.31 127.57Z" fill="white"/>
<path d="M316.28 61.24H323.51V193.17H316.28V61.24Z" fill="white"/>
<path d="M381.16 68.11H345V61.24H424.52V68.11H388.39V193.17H381.16V68.11Z" fill="white"/>
<path d="M436.76 127C436.76 86.66 466.08 58.35 502.41 58.35C522.2 58.35 539.99 66.87 549.26 80.9L549.51 60.85H570.31V193.17H549.51L549.26 173.17C539.99 187.17 522.2 195.72 502.41 195.72C466.08 195.68 436.76 167.37 436.76 127ZM504.92 174.1C529.22 174.1 549.01 157.32 549.01 127C549.01 96.68 529.22 79.64 504.92 79.64C479.11 79.64 459.82 99.19 459.82 127C459.82 154.59 479.11 174.13 504.92 174.13V174.1Z" fill="#FF0066"/>
<path d="M604.14 0H627.19V193.17H604.14V0Z" fill="#FF0066"/>
<path d="M661 0H684V193.17H661V0Z" fill="#FF0066"/>
<path d="M716.13 100H780.52V121.8H716.13V100Z" fill="#FF0066"/>
<path d="M836.15 60.88H813.1V193.17H836.15V60.88Z" fill="#FF0066"/>
<path d="M920.84 57.88C953.41 57.88 972.95 78.67 972.95 113.75V193.17H949.9V114.5C949.9 91.95 939.63 79.67 920.84 79.67C901.79 79.67 891.52 91.95 891.52 114.5V193.17H868.52V113.75C868.47 78.67 887.76 57.88 920.84 57.88Z" fill="#FF0066"/>
</g>
<defs>
<clipPath id="clip0_455001_1354">
<rect width="972.95" height="195.68" fill="white"/>
</clipPath>
</defs>
</svg>
